<svg xmlns="http://www.w3.org/2000/svg" xmlns:xlink="http://www.w3.org/1999/xlink" width="250" zoomAndPan="magnify" viewBox="0 0 187.5 74.999997" height="100" preserveAspectRatio="xMidYMid meet" version="1.0"><defs><g/><clipPath id="d44a0775da"><path d="M 143.050781 12.742188 L 179.5625 12.742188 L 179.5625 49.25 L 143.050781 49.25 Z M 143.050781 12.742188 " clip-rule="nonzero"/></clipPath><clipPath id="c6b041e47a"><path d="M 14.929688 13.789062 L 21.929688 13.789062 L 21.929688 20.789062 L 14.929688 20.789062 Z M 14.929688 13.789062 " clip-rule="nonzero"/></clipPath><clipPath id="89ed56aca5"><path d="M 18.429688 13.789062 C 16.496094 13.789062 14.929688 15.355469 14.929688 17.289062 C 14.929688 19.222656 16.496094 20.789062 18.429688 20.789062 C 20.363281 20.789062 21.929688 19.222656 21.929688 17.289062 C 21.929688 15.355469 20.363281 13.789062 18.429688 13.789062 Z M 18.429688 13.789062 " clip-rule="nonzero"/></clipPath></defs><g fill="#38b6ff" fill-opacity="1"><g transform="translate(13.064014, 47.122458)"><g><path d="M 5.578125 -32.9375 C 6.296875 -32.9375 6.914062 -32.679688 7.4375 -32.171875 C 7.96875 -31.660156 8.234375 -31.035156 8.234375 -30.296875 C 8.234375 -29.515625 7.984375 -28.875 7.484375 -28.375 C 6.992188 -27.882812 6.359375 -27.640625 5.578125 -27.640625 C 4.804688 -27.640625 4.171875 -27.882812 3.671875 -28.375 C 3.179688 -28.875 2.9375 -29.515625 2.9375 -30.296875 C 2.9375 -31.035156 3.195312 -31.660156 3.71875 -32.171875 C 4.25 -32.679688 4.867188 -32.9375 5.578125 -32.9375 Z M 7.40625 -21.78125 L 7.40625 0 L 3.765625 0 L 3.765625 -21.78125 Z M 7.40625 -21.78125 "/></g></g></g><g fill="#38b6ff" fill-opacity="1"><g transform="translate(24.229414, 47.122458)"><g><path d="M 14.140625 -22.328125 C 16.867188 -22.328125 18.929688 -21.535156 20.328125 -19.953125 C 21.722656 -18.378906 22.421875 -16.273438 22.421875 -13.640625 L 22.421875 0 L 18.796875 0 L 18.796875 -13.21875 C 18.796875 -14.894531 18.40625 -16.265625 17.625 -17.328125 C 16.851562 -18.398438 15.582031 -18.953125 13.8125 -18.984375 C 11.582031 -18.984375 9.898438 -18.242188 8.765625 -16.765625 C 7.640625 -15.296875 7.078125 -13.257812 7.078125 -10.65625 L 7.078125 0 L 3.4375 0 L 3.4375 -16.9375 C 3.4375 -17.09375 3.375 -18.707031 3.25 -21.78125 L 6.703125 -21.78125 C 6.765625 -19.601562 6.796875 -18.40625 6.796875 -18.1875 L 6.890625 -18.1875 C 7.472656 -19.4375 8.421875 -20.4375 9.734375 -21.1875 C 11.054688 -21.945312 12.523438 -22.328125 14.140625 -22.328125 Z M 14.140625 -22.328125 "/></g></g></g><g fill="#38b6ff" fill-opacity="1"><g transform="translate(50.095924, 47.122458)"><g><path d="M 4.703125 -21.78125 L 11.5 -4.703125 L 11.59375 -4.703125 L 18.046875 -21.78125 L 21.96875 -21.78125 L 13.359375 0 L 9.359375 0 L 0.46875 -21.78125 Z M 4.703125 -21.78125 "/></g></g></g><g fill="#38b6ff" fill-opacity="1"><g transform="translate(72.519773, 47.122458)"><g><path d="M 5.578125 -32.9375 C 6.296875 -32.9375 6.914062 -32.679688 7.4375 -32.171875 C 7.96875 -31.660156 8.234375 -31.035156 8.234375 -30.296875 C 8.234375 -29.515625 7.984375 -28.875 7.484375 -28.375 C 6.992188 -27.882812 6.359375 -27.640625 5.578125 -27.640625 C 4.804688 -27.640625 4.171875 -27.882812 3.671875 -28.375 C 3.179688 -28.875 2.9375 -29.515625 2.9375 -30.296875 C 2.9375 -31.035156 3.195312 -31.660156 3.71875 -32.171875 C 4.25 -32.679688 4.867188 -32.9375 5.578125 -32.9375 Z M 7.40625 -21.78125 L 7.40625 0 L 3.765625 0 L 3.765625 -21.78125 Z M 7.40625 -21.78125 "/></g></g></g><g fill="#38b6ff" fill-opacity="1"><g transform="translate(83.685173, 47.122458)"><g><path d="M 14.140625 -22.328125 C 16.867188 -22.328125 18.929688 -21.535156 20.328125 -19.953125 C 21.722656 -18.378906 22.421875 -16.273438 22.421875 -13.640625 L 22.421875 0 L 18.796875 0 L 18.796875 -13.21875 C 18.796875 -14.894531 18.40625 -16.265625 17.625 -17.328125 C 16.851562 -18.398438 15.582031 -18.953125 13.8125 -18.984375 C 11.582031 -18.984375 9.898438 -18.242188 8.765625 -16.765625 C 7.640625 -15.296875 7.078125 -13.257812 7.078125 -10.65625 L 7.078125 0 L 3.4375 0 L 3.4375 -16.9375 C 3.4375 -17.09375 3.375 -18.707031 3.25 -21.78125 L 6.703125 -21.78125 C 6.765625 -19.601562 6.796875 -18.40625 6.796875 -18.1875 L 6.890625 -18.1875 C 7.472656 -19.4375 8.421875 -20.4375 9.734375 -21.1875 C 11.054688 -21.945312 12.523438 -22.328125 14.140625 -22.328125 Z M 14.140625 -22.328125 "/></g></g></g><g fill="#38b6ff" fill-opacity="1"><g transform="translate(109.551684, 47.122458)"><g><path d="M 25.171875 -35.171875 L 25.171875 0 L 21.546875 0 L 21.546875 -3.859375 L 21.453125 -3.859375 C 20.703125 -2.460938 19.566406 -1.375 18.046875 -0.59375 C 16.535156 0.175781 14.878906 0.5625 13.078125 0.5625 C 10.003906 0.5625 7.4375 -0.53125 5.375 -2.71875 C 3.3125 -4.90625 2.25 -7.628906 2.1875 -10.890625 C 2.1875 -14.203125 3.25 -16.925781 5.375 -19.0625 C 7.5 -21.207031 10.253906 -22.296875 13.640625 -22.328125 C 16.765625 -22.328125 19.367188 -21.085938 21.453125 -18.609375 L 21.546875 -18.609375 L 21.546875 -35.171875 Z M 6.09375 -10.890625 C 6.09375 -8.503906 6.8125 -6.566406 8.25 -5.078125 C 9.695312 -3.585938 11.550781 -2.828125 13.8125 -2.796875 C 16.082031 -2.796875 17.921875 -3.539062 19.328125 -5.03125 C 20.742188 -6.519531 21.484375 -8.472656 21.546875 -10.890625 C 21.546875 -13.242188 20.820312 -15.179688 19.375 -16.703125 C 17.9375 -18.222656 16.066406 -18.984375 13.765625 -18.984375 C 11.535156 -18.984375 9.710938 -18.226562 8.296875 -16.71875 C 6.890625 -15.21875 6.15625 -13.273438 6.09375 -10.890625 Z M 6.09375 -10.890625 "/></g></g></g><path fill="#bf9900" d="M 166.664062 29.84375 C 166.664062 30.273438 166.621094 30.695312 166.539062 31.117188 C 166.457031 31.535156 166.332031 31.941406 166.167969 32.335938 C 166.003906 32.730469 165.804688 33.105469 165.566406 33.460938 C 165.328125 33.816406 165.058594 34.144531 164.757812 34.449219 C 164.453125 34.75 164.125 35.019531 163.769531 35.257812 C 163.414062 35.496094 163.039062 35.695312 162.644531 35.859375 C 162.25 36.023438 161.84375 36.144531 161.425781 36.230469 C 161.003906 36.3125 160.582031 36.355469 160.15625 36.355469 C 159.726562 36.355469 159.304688 36.3125 158.882812 36.230469 C 158.464844 36.144531 158.058594 36.023438 157.664062 35.859375 C 157.269531 35.695312 156.894531 35.496094 156.539062 35.257812 C 156.183594 35.019531 155.855469 34.75 155.550781 34.449219 C 155.25 34.144531 154.980469 33.816406 154.742188 33.460938 C 154.503906 33.105469 154.304688 32.730469 154.140625 32.335938 C 153.976562 31.941406 153.855469 31.535156 153.769531 31.117188 C 153.6875 30.695312 153.644531 30.273438 153.644531 29.84375 C 153.644531 29.417969 153.6875 28.996094 153.769531 28.574219 C 153.855469 28.15625 153.976562 27.75 154.140625 27.355469 C 154.304688 26.960938 154.503906 26.585938 154.742188 26.230469 C 154.980469 25.875 155.25 25.546875 155.550781 25.242188 C 155.855469 24.941406 156.183594 24.671875 156.539062 24.433594 C 156.894531 24.195312 157.269531 23.996094 157.664062 23.832031 C 158.058594 23.667969 158.464844 23.542969 158.882812 23.460938 C 159.304688 23.378906 159.726562 23.335938 160.15625 23.335938 C 160.582031 23.335938 161.003906 23.378906 161.425781 23.460938 C 161.84375 23.542969 162.25 23.667969 162.644531 23.832031 C 163.039062 23.996094 163.414062 24.195312 163.769531 24.433594 C 164.125 24.671875 164.453125 24.941406 164.757812 25.242188 C 165.058594 25.546875 165.328125 25.875 165.566406 26.230469 C 165.804688 26.585938 166.003906 26.960938 166.167969 27.355469 C 166.332031 27.75 166.457031 28.15625 166.539062 28.574219 C 166.621094 28.996094 166.664062 29.417969 166.664062 29.84375 Z M 166.664062 29.84375 " fill-opacity="1" fill-rule="nonzero"/><g clip-path="url(#d44a0775da)"><path fill="#bf9900" d="M 161.28125 12.742188 C 151.214844 12.742188 143.050781 20.90625 143.050781 30.972656 C 143.050781 41.042969 151.214844 49.203125 161.28125 49.203125 C 171.351562 49.203125 179.511719 41.042969 179.511719 30.972656 C 179.511719 20.90625 171.351562 12.742188 161.28125 12.742188 Z M 171.882812 41.574219 C 171.207031 42.253906 170.105469 42.253906 169.429688 41.574219 L 165.878906 38.023438 C 164.261719 39.15625 162.292969 39.824219 160.167969 39.828125 C 154.730469 39.835938 150.261719 35.449219 150.175781 30.011719 C 150.082031 24.367188 154.675781 19.773438 160.320312 19.867188 C 165.757812 19.953125 170.144531 24.421875 170.136719 29.859375 C 170.132812 31.984375 169.464844 33.953125 168.332031 35.570312 L 171.882812 39.121094 C 172.5625 39.796875 172.5625 40.898438 171.882812 41.574219 Z M 171.882812 41.574219 " fill-opacity="1" fill-rule="nonzero"/></g><g clip-path="url(#c6b041e47a)"><g clip-path="url(#89ed56aca5)"><path fill="#bf9900" d="M 14.929688 13.789062 L 21.929688 13.789062 L 21.929688 20.789062 L 14.929688 20.789062 Z M 14.929688 13.789062 " fill-opacity="1" fill-rule="nonzero"/></g></g><g fill="#000000" fill-opacity="1"><g transform="translate(21.814616, 60.307881)"><g><path d="M 0.25 -7.453125 L 1.515625 -7.453125 L 3.46875 -4.0625 L 3.546875 -4.0625 L 5.5 -7.453125 L 6.78125 -7.453125 L 4.0625 -2.921875 L 4.0625 0 L 2.953125 0 L 2.953125 -2.921875 Z M 0.25 -7.453125 "/></g></g></g><g fill="#000000" fill-opacity="1"><g transform="translate(28.82941, 60.307881)"><g><path d="M 3.09375 0.109375 C 2.5625 0.109375 2.097656 -0.0078125 1.703125 -0.25 C 1.316406 -0.488281 1.015625 -0.820312 0.796875 -1.25 C 0.585938 -1.6875 0.484375 -2.191406 0.484375 -2.765625 C 0.484375 -3.347656 0.585938 -3.851562 0.796875 -4.28125 C 1.015625 -4.71875 1.316406 -5.054688 1.703125 -5.296875 C 2.097656 -5.535156 2.5625 -5.65625 3.09375 -5.65625 C 3.613281 -5.65625 4.066406 -5.535156 4.453125 -5.296875 C 4.847656 -5.054688 5.148438 -4.71875 5.359375 -4.28125 C 5.578125 -3.851562 5.6875 -3.347656 5.6875 -2.765625 C 5.6875 -2.191406 5.578125 -1.6875 5.359375 -1.25 C 5.148438 -0.820312 4.847656 -0.488281 4.453125 -0.25 C 4.066406 -0.0078125 3.613281 0.109375 3.09375 0.109375 Z M 3.09375 -0.796875 C 3.425781 -0.796875 3.703125 -0.882812 3.921875 -1.0625 C 4.148438 -1.25 4.316406 -1.488281 4.421875 -1.78125 C 4.535156 -2.082031 4.59375 -2.414062 4.59375 -2.78125 C 4.59375 -3.132812 4.535156 -3.457031 4.421875 -3.75 C 4.316406 -4.050781 4.148438 -4.289062 3.921875 -4.46875 C 3.703125 -4.65625 3.425781 -4.75 3.09375 -4.75 C 2.75 -4.75 2.460938 -4.65625 2.234375 -4.46875 C 2.015625 -4.289062 1.847656 -4.050781 1.734375 -3.75 C 1.628906 -3.457031 1.578125 -3.132812 1.578125 -2.78125 C 1.578125 -2.414062 1.628906 -2.082031 1.734375 -1.78125 C 1.847656 -1.488281 2.015625 -1.25 2.234375 -1.0625 C 2.460938 -0.882812 2.75 -0.796875 3.09375 -0.796875 Z M 3.09375 -0.796875 "/></g></g></g><g fill="#000000" fill-opacity="1"><g transform="translate(35.000104, 60.307881)"><g><path d="M 4.265625 -2.3125 L 4.265625 -5.59375 L 5.359375 -5.59375 L 5.359375 0 L 4.296875 0 L 4.296875 -0.96875 L 4.234375 -0.96875 C 4.109375 -0.664062 3.90625 -0.414062 3.625 -0.21875 C 3.34375 -0.0195312 2.988281 0.078125 2.5625 0.078125 C 2.207031 0.078125 1.890625 0 1.609375 -0.15625 C 1.335938 -0.320312 1.125 -0.5625 0.96875 -0.875 C 0.8125 -1.1875 0.734375 -1.570312 0.734375 -2.03125 L 0.734375 -5.59375 L 1.8125 -5.59375 L 1.8125 -2.171875 C 1.8125 -1.785156 1.914062 -1.476562 2.125 -1.25 C 2.34375 -1.03125 2.617188 -0.921875 2.953125 -0.921875 C 3.160156 -0.921875 3.363281 -0.96875 3.5625 -1.0625 C 3.769531 -1.164062 3.941406 -1.320312 4.078125 -1.53125 C 4.210938 -1.738281 4.273438 -2 4.265625 -2.3125 Z M 4.265625 -2.3125 "/></g></g></g><g fill="#000000" fill-opacity="1"><g transform="translate(41.090753, 60.307881)"><g><path d="M 0.734375 0 L 0.734375 -5.59375 L 1.78125 -5.59375 L 1.78125 -4.703125 L 1.84375 -4.703125 C 1.945312 -5.003906 2.125 -5.238281 2.375 -5.40625 C 2.632812 -5.582031 2.929688 -5.671875 3.265625 -5.671875 C 3.328125 -5.671875 3.40625 -5.664062 3.5 -5.65625 C 3.59375 -5.65625 3.664062 -5.65625 3.71875 -5.65625 L 3.71875 -4.609375 C 3.675781 -4.617188 3.597656 -4.628906 3.484375 -4.640625 C 3.378906 -4.660156 3.269531 -4.671875 3.15625 -4.671875 C 2.894531 -4.671875 2.664062 -4.613281 2.46875 -4.5 C 2.269531 -4.394531 2.109375 -4.25 1.984375 -4.0625 C 1.867188 -3.875 1.8125 -3.660156 1.8125 -3.421875 L 1.8125 0 Z M 0.734375 0 "/></g></g></g><g fill="#000000" fill-opacity="1"><g transform="translate(45.02748, 60.307881)"><g/></g></g><g fill="#000000" fill-opacity="1"><g transform="translate(47.741709, 60.307881)"><g><path d="M 4.921875 -4.21875 L 3.9375 -4.046875 C 3.894531 -4.171875 3.828125 -4.289062 3.734375 -4.40625 C 3.648438 -4.519531 3.53125 -4.613281 3.375 -4.6875 C 3.226562 -4.757812 3.039062 -4.796875 2.8125 -4.796875 C 2.507812 -4.796875 2.253906 -4.726562 2.046875 -4.59375 C 1.835938 -4.457031 1.734375 -4.28125 1.734375 -4.0625 C 1.734375 -3.875 1.800781 -3.722656 1.9375 -3.609375 C 2.082031 -3.492188 2.304688 -3.398438 2.609375 -3.328125 L 3.5 -3.125 C 4.007812 -3.007812 4.390625 -2.828125 4.640625 -2.578125 C 4.898438 -2.328125 5.03125 -2.003906 5.03125 -1.609375 C 5.03125 -1.273438 4.929688 -0.976562 4.734375 -0.71875 C 4.546875 -0.457031 4.28125 -0.253906 3.9375 -0.109375 C 3.59375 0.0351562 3.195312 0.109375 2.75 0.109375 C 2.125 0.109375 1.613281 -0.0195312 1.21875 -0.28125 C 0.820312 -0.550781 0.578125 -0.9375 0.484375 -1.4375 L 1.53125 -1.59375 C 1.601562 -1.320312 1.738281 -1.113281 1.9375 -0.96875 C 2.144531 -0.832031 2.410156 -0.765625 2.734375 -0.765625 C 3.085938 -0.765625 3.367188 -0.835938 3.578125 -0.984375 C 3.796875 -1.140625 3.90625 -1.320312 3.90625 -1.53125 C 3.90625 -1.707031 3.84375 -1.851562 3.71875 -1.96875 C 3.59375 -2.09375 3.394531 -2.1875 3.125 -2.25 L 2.171875 -2.453125 C 1.648438 -2.566406 1.265625 -2.753906 1.015625 -3.015625 C 0.765625 -3.273438 0.640625 -3.601562 0.640625 -4 C 0.640625 -4.332031 0.734375 -4.625 0.921875 -4.875 C 1.109375 -5.125 1.363281 -5.316406 1.6875 -5.453125 C 2.007812 -5.585938 2.382812 -5.65625 2.8125 -5.65625 C 3.414062 -5.65625 3.890625 -5.523438 4.234375 -5.265625 C 4.578125 -5.003906 4.804688 -4.65625 4.921875 -4.21875 Z M 4.921875 -4.21875 "/></g></g></g><g fill="#000000" fill-opacity="1"><g transform="translate(53.232021, 60.307881)"><g><path d="M 3.140625 0.109375 C 2.585938 0.109375 2.113281 -0.00390625 1.71875 -0.234375 C 1.320312 -0.472656 1.015625 -0.804688 0.796875 -1.234375 C 0.585938 -1.671875 0.484375 -2.179688 0.484375 -2.765625 C 0.484375 -3.335938 0.585938 -3.835938 0.796875 -4.265625 C 1.015625 -4.703125 1.316406 -5.039062 1.703125 -5.28125 C 2.085938 -5.53125 2.539062 -5.65625 3.0625 -5.65625 C 3.375 -5.65625 3.675781 -5.601562 3.96875 -5.5 C 4.269531 -5.394531 4.535156 -5.234375 4.765625 -5.015625 C 5.003906 -4.796875 5.191406 -4.503906 5.328125 -4.140625 C 5.472656 -3.785156 5.546875 -3.359375 5.546875 -2.859375 L 5.546875 -2.46875 L 1.09375 -2.46875 L 1.09375 -3.28125 L 4.46875 -3.28125 C 4.46875 -3.570312 4.410156 -3.828125 4.296875 -4.046875 C 4.179688 -4.265625 4.019531 -4.4375 3.8125 -4.5625 C 3.601562 -4.695312 3.359375 -4.765625 3.078125 -4.765625 C 2.765625 -4.765625 2.492188 -4.6875 2.265625 -4.53125 C 2.046875 -4.382812 1.875 -4.191406 1.75 -3.953125 C 1.625 -3.710938 1.5625 -3.457031 1.5625 -3.1875 L 1.5625 -2.546875 C 1.5625 -2.171875 1.628906 -1.851562 1.765625 -1.59375 C 1.898438 -1.332031 2.082031 -1.128906 2.3125 -0.984375 C 2.550781 -0.847656 2.832031 -0.78125 3.15625 -0.78125 C 3.363281 -0.78125 3.550781 -0.8125 3.71875 -0.875 C 3.882812 -0.9375 4.03125 -1.023438 4.15625 -1.140625 C 4.28125 -1.265625 4.375 -1.410156 4.4375 -1.578125 L 5.46875 -1.390625 C 5.382812 -1.085938 5.234375 -0.820312 5.015625 -0.59375 C 4.804688 -0.375 4.539062 -0.203125 4.21875 -0.078125 C 3.90625 0.046875 3.546875 0.109375 3.140625 0.109375 Z M 3.140625 0.109375 "/></g></g></g><g fill="#000000" fill-opacity="1"><g transform="translate(59.249896, 60.307881)"><g><path d="M 2.359375 0.125 C 2.003906 0.125 1.679688 0.0625 1.390625 -0.0625 C 1.109375 -0.195312 0.882812 -0.390625 0.71875 -0.640625 C 0.550781 -0.898438 0.46875 -1.210938 0.46875 -1.578125 C 0.46875 -1.890625 0.523438 -2.148438 0.640625 -2.359375 C 0.765625 -2.566406 0.929688 -2.726562 1.140625 -2.84375 C 1.347656 -2.957031 1.578125 -3.046875 1.828125 -3.109375 C 2.085938 -3.171875 2.347656 -3.21875 2.609375 -3.25 C 2.941406 -3.289062 3.210938 -3.320312 3.421875 -3.34375 C 3.628906 -3.375 3.78125 -3.414062 3.875 -3.46875 C 3.976562 -3.53125 4.03125 -3.625 4.03125 -3.75 L 4.03125 -3.78125 C 4.03125 -4.101562 3.9375 -4.347656 3.75 -4.515625 C 3.570312 -4.691406 3.3125 -4.78125 2.96875 -4.78125 C 2.59375 -4.78125 2.300781 -4.695312 2.09375 -4.53125 C 1.882812 -4.375 1.738281 -4.195312 1.65625 -4 L 0.640625 -4.234375 C 0.765625 -4.578125 0.941406 -4.851562 1.171875 -5.0625 C 1.410156 -5.269531 1.679688 -5.421875 1.984375 -5.515625 C 2.285156 -5.609375 2.609375 -5.65625 2.953125 -5.65625 C 3.171875 -5.65625 3.40625 -5.628906 3.65625 -5.578125 C 3.90625 -5.523438 4.140625 -5.429688 4.359375 -5.296875 C 4.585938 -5.160156 4.769531 -4.960938 4.90625 -4.703125 C 5.050781 -4.453125 5.125 -4.125 5.125 -3.71875 L 5.125 0 L 4.0625 0 L 4.0625 -0.765625 L 4.015625 -0.765625 C 3.941406 -0.617188 3.832031 -0.476562 3.6875 -0.34375 C 3.550781 -0.207031 3.375 -0.09375 3.15625 0 C 2.9375 0.0820312 2.671875 0.125 2.359375 0.125 Z M 2.59375 -0.75 C 2.894531 -0.75 3.148438 -0.804688 3.359375 -0.921875 C 3.578125 -1.046875 3.742188 -1.203125 3.859375 -1.390625 C 3.972656 -1.585938 4.03125 -1.796875 4.03125 -2.015625 L 4.03125 -2.734375 C 3.988281 -2.691406 3.910156 -2.65625 3.796875 -2.625 C 3.691406 -2.59375 3.566406 -2.566406 3.421875 -2.546875 C 3.285156 -2.523438 3.148438 -2.503906 3.015625 -2.484375 C 2.878906 -2.460938 2.769531 -2.445312 2.6875 -2.4375 C 2.46875 -2.414062 2.269531 -2.367188 2.09375 -2.296875 C 1.925781 -2.234375 1.789062 -2.144531 1.6875 -2.03125 C 1.582031 -1.914062 1.53125 -1.757812 1.53125 -1.5625 C 1.53125 -1.289062 1.628906 -1.085938 1.828125 -0.953125 C 2.035156 -0.816406 2.289062 -0.75 2.59375 -0.75 Z M 2.59375 -0.75 "/></g></g></g><g fill="#000000" fill-opacity="1"><g transform="translate(65.082216, 60.307881)"><g><path d="M 0.734375 0 L 0.734375 -5.59375 L 1.78125 -5.59375 L 1.78125 -4.703125 L 1.84375 -4.703125 C 1.945312 -5.003906 2.125 -5.238281 2.375 -5.40625 C 2.632812 -5.582031 2.929688 -5.671875 3.265625 -5.671875 C 3.328125 -5.671875 3.40625 -5.664062 3.5 -5.65625 C 3.59375 -5.65625 3.664062 -5.65625 3.71875 -5.65625 L 3.71875 -4.609375 C 3.675781 -4.617188 3.597656 -4.628906 3.484375 -4.640625 C 3.378906 -4.660156 3.269531 -4.671875 3.15625 -4.671875 C 2.894531 -4.671875 2.664062 -4.613281 2.46875 -4.5 C 2.269531 -4.394531 2.109375 -4.25 1.984375 -4.0625 C 1.867188 -3.875 1.8125 -3.660156 1.8125 -3.421875 L 1.8125 0 Z M 0.734375 0 "/></g></g></g><g fill="#000000" fill-opacity="1"><g transform="translate(69.018943, 60.307881)"><g><path d="M 3.09375 0.109375 C 2.550781 0.109375 2.082031 -0.0078125 1.6875 -0.25 C 1.300781 -0.5 1.003906 -0.835938 0.796875 -1.265625 C 0.585938 -1.703125 0.484375 -2.203125 0.484375 -2.765625 C 0.484375 -3.335938 0.585938 -3.835938 0.796875 -4.265625 C 1.015625 -4.703125 1.316406 -5.039062 1.703125 -5.28125 C 2.085938 -5.53125 2.546875 -5.65625 3.078125 -5.65625 C 3.503906 -5.65625 3.878906 -5.578125 4.203125 -5.421875 C 4.535156 -5.265625 4.804688 -5.046875 5.015625 -4.765625 C 5.222656 -4.484375 5.347656 -4.15625 5.390625 -3.78125 L 4.328125 -3.78125 C 4.265625 -4.039062 4.128906 -4.265625 3.921875 -4.453125 C 3.710938 -4.648438 3.4375 -4.75 3.09375 -4.75 C 2.789062 -4.75 2.523438 -4.664062 2.296875 -4.5 C 2.066406 -4.34375 1.890625 -4.117188 1.765625 -3.828125 C 1.640625 -3.535156 1.578125 -3.191406 1.578125 -2.796875 C 1.578125 -2.390625 1.640625 -2.035156 1.765625 -1.734375 C 1.890625 -1.441406 2.0625 -1.210938 2.28125 -1.046875 C 2.507812 -0.890625 2.78125 -0.8125 3.09375 -0.8125 C 3.300781 -0.8125 3.488281 -0.847656 3.65625 -0.921875 C 3.820312 -0.992188 3.960938 -1.101562 4.078125 -1.25 C 4.191406 -1.394531 4.273438 -1.566406 4.328125 -1.765625 L 5.390625 -1.765625 C 5.347656 -1.410156 5.226562 -1.085938 5.03125 -0.796875 C 4.832031 -0.515625 4.566406 -0.289062 4.234375 -0.125 C 3.910156 0.03125 3.53125 0.109375 3.09375 0.109375 Z M 3.09375 0.109375 "/></g></g></g><g fill="#000000" fill-opacity="1"><g transform="translate(74.836713, 60.307881)"><g><path d="M 1.8125 -3.3125 L 1.8125 0 L 0.734375 0 L 0.734375 -7.453125 L 1.8125 -7.453125 L 1.8125 -4.6875 L 1.875 -4.6875 C 2.007812 -4.976562 2.207031 -5.210938 2.46875 -5.390625 C 2.738281 -5.566406 3.09375 -5.65625 3.53125 -5.65625 C 3.914062 -5.65625 4.25 -5.578125 4.53125 -5.421875 C 4.820312 -5.265625 5.046875 -5.03125 5.203125 -4.71875 C 5.367188 -4.40625 5.453125 -4.019531 5.453125 -3.5625 L 5.453125 0 L 4.359375 0 L 4.359375 -3.421875 C 4.359375 -3.835938 4.25 -4.15625 4.03125 -4.375 C 3.820312 -4.601562 3.53125 -4.71875 3.15625 -4.71875 C 2.90625 -4.71875 2.675781 -4.660156 2.46875 -4.546875 C 2.269531 -4.441406 2.109375 -4.285156 1.984375 -4.078125 C 1.867188 -3.867188 1.8125 -3.613281 1.8125 -3.3125 Z M 1.8125 -3.3125 "/></g></g></g><g fill="#000000" fill-opacity="1"><g transform="translate(81.003763, 60.307881)"><g/></g></g><g fill="#000000" fill-opacity="1"><g transform="translate(83.717993, 60.307881)"><g><path d="M 3.140625 0.109375 C 2.585938 0.109375 2.113281 -0.00390625 1.71875 -0.234375 C 1.320312 -0.472656 1.015625 -0.804688 0.796875 -1.234375 C 0.585938 -1.671875 0.484375 -2.179688 0.484375 -2.765625 C 0.484375 -3.335938 0.585938 -3.835938 0.796875 -4.265625 C 1.015625 -4.703125 1.316406 -5.039062 1.703125 -5.28125 C 2.085938 -5.53125 2.539062 -5.65625 3.0625 -5.65625 C 3.375 -5.65625 3.675781 -5.601562 3.96875 -5.5 C 4.269531 -5.394531 4.535156 -5.234375 4.765625 -5.015625 C 5.003906 -4.796875 5.191406 -4.503906 5.328125 -4.140625 C 5.472656 -3.785156 5.546875 -3.359375 5.546875 -2.859375 L 5.546875 -2.46875 L 1.09375 -2.46875 L 1.09375 -3.28125 L 4.46875 -3.28125 C 4.46875 -3.570312 4.410156 -3.828125 4.296875 -4.046875 C 4.179688 -4.265625 4.019531 -4.4375 3.8125 -4.5625 C 3.601562 -4.695312 3.359375 -4.765625 3.078125 -4.765625 C 2.765625 -4.765625 2.492188 -4.6875 2.265625 -4.53125 C 2.046875 -4.382812 1.875 -4.191406 1.75 -3.953125 C 1.625 -3.710938 1.5625 -3.457031 1.5625 -3.1875 L 1.5625 -2.546875 C 1.5625 -2.171875 1.628906 -1.851562 1.765625 -1.59375 C 1.898438 -1.332031 2.082031 -1.128906 2.3125 -0.984375 C 2.550781 -0.847656 2.832031 -0.78125 3.15625 -0.78125 C 3.363281 -0.78125 3.550781 -0.8125 3.71875 -0.875 C 3.882812 -0.9375 4.03125 -1.023438 4.15625 -1.140625 C 4.28125 -1.265625 4.375 -1.410156 4.4375 -1.578125 L 5.46875 -1.390625 C 5.382812 -1.085938 5.234375 -0.820312 5.015625 -0.59375 C 4.804688 -0.375 4.539062 -0.203125 4.21875 -0.078125 C 3.90625 0.046875 3.546875 0.109375 3.140625 0.109375 Z M 3.140625 0.109375 "/></g></g></g><g fill="#000000" fill-opacity="1"><g transform="translate(89.735868, 60.307881)"><g><path d="M 1.8125 -3.3125 L 1.8125 0 L 0.734375 0 L 0.734375 -5.59375 L 1.78125 -5.59375 L 1.78125 -4.6875 L 1.84375 -4.6875 C 1.96875 -4.976562 2.164062 -5.210938 2.4375 -5.390625 C 2.71875 -5.566406 3.070312 -5.65625 3.5 -5.65625 C 3.875 -5.65625 4.203125 -5.578125 4.484375 -5.421875 C 4.773438 -5.265625 5 -5.03125 5.15625 -4.71875 C 5.3125 -4.40625 5.390625 -4.019531 5.390625 -3.5625 L 5.390625 0 L 4.3125 0 L 4.3125 -3.421875 C 4.3125 -3.828125 4.203125 -4.144531 3.984375 -4.375 C 3.773438 -4.601562 3.488281 -4.71875 3.125 -4.71875 C 2.875 -4.71875 2.648438 -4.660156 2.453125 -4.546875 C 2.253906 -4.441406 2.097656 -4.285156 1.984375 -4.078125 C 1.867188 -3.867188 1.8125 -3.613281 1.8125 -3.3125 Z M 1.8125 -3.3125 "/></g></g></g><g fill="#000000" fill-opacity="1"><g transform="translate(95.855618, 60.307881)"><g><path d="M 2.828125 0.109375 C 2.367188 0.109375 1.960938 -0.00390625 1.609375 -0.234375 C 1.265625 -0.472656 0.988281 -0.804688 0.78125 -1.234375 C 0.582031 -1.660156 0.484375 -2.175781 0.484375 -2.78125 C 0.484375 -3.382812 0.582031 -3.898438 0.78125 -4.328125 C 0.988281 -4.765625 1.269531 -5.09375 1.625 -5.3125 C 1.976562 -5.539062 2.378906 -5.65625 2.828125 -5.65625 C 3.179688 -5.65625 3.460938 -5.597656 3.671875 -5.484375 C 3.878906 -5.367188 4.039062 -5.234375 4.15625 -5.078125 C 4.28125 -4.929688 4.375 -4.800781 4.4375 -4.6875 L 4.5 -4.6875 L 4.5 -7.453125 L 5.59375 -7.453125 L 5.59375 0 L 4.53125 0 L 4.53125 -0.875 L 4.4375 -0.875 C 4.375 -0.75 4.28125 -0.609375 4.15625 -0.453125 C 4.03125 -0.304688 3.859375 -0.175781 3.640625 -0.0625 C 3.429688 0.0507812 3.160156 0.109375 2.828125 0.109375 Z M 3.0625 -0.8125 C 3.375 -0.8125 3.640625 -0.894531 3.859375 -1.0625 C 4.078125 -1.226562 4.242188 -1.457031 4.359375 -1.75 C 4.472656 -2.050781 4.53125 -2.398438 4.53125 -2.796875 C 4.53125 -3.179688 4.472656 -3.519531 4.359375 -3.8125 C 4.242188 -4.101562 4.078125 -4.328125 3.859375 -4.484375 C 3.648438 -4.648438 3.382812 -4.734375 3.0625 -4.734375 C 2.738281 -4.734375 2.46875 -4.648438 2.25 -4.484375 C 2.03125 -4.316406 1.863281 -4.082031 1.75 -3.78125 C 1.644531 -3.488281 1.59375 -3.160156 1.59375 -2.796875 C 1.59375 -2.421875 1.644531 -2.082031 1.75 -1.78125 C 1.863281 -1.488281 2.03125 -1.253906 2.25 -1.078125 C 2.46875 -0.898438 2.738281 -0.8125 3.0625 -0.8125 Z M 3.0625 -0.8125 "/></g></g></g><g fill="#000000" fill-opacity="1"><g transform="translate(102.266439, 60.307881)"><g><path d="M 4.921875 -4.21875 L 3.9375 -4.046875 C 3.894531 -4.171875 3.828125 -4.289062 3.734375 -4.40625 C 3.648438 -4.519531 3.53125 -4.613281 3.375 -4.6875 C 3.226562 -4.757812 3.039062 -4.796875 2.8125 -4.796875 C 2.507812 -4.796875 2.253906 -4.726562 2.046875 -4.59375 C 1.835938 -4.457031 1.734375 -4.28125 1.734375 -4.0625 C 1.734375 -3.875 1.800781 -3.722656 1.9375 -3.609375 C 2.082031 -3.492188 2.304688 -3.398438 2.609375 -3.328125 L 3.5 -3.125 C 4.007812 -3.007812 4.390625 -2.828125 4.640625 -2.578125 C 4.898438 -2.328125 5.03125 -2.003906 5.03125 -1.609375 C 5.03125 -1.273438 4.929688 -0.976562 4.734375 -0.71875 C 4.546875 -0.457031 4.28125 -0.253906 3.9375 -0.109375 C 3.59375 0.0351562 3.195312 0.109375 2.75 0.109375 C 2.125 0.109375 1.613281 -0.0195312 1.21875 -0.28125 C 0.820312 -0.550781 0.578125 -0.9375 0.484375 -1.4375 L 1.53125 -1.59375 C 1.601562 -1.320312 1.738281 -1.113281 1.9375 -0.96875 C 2.144531 -0.832031 2.410156 -0.765625 2.734375 -0.765625 C 3.085938 -0.765625 3.367188 -0.835938 3.578125 -0.984375 C 3.796875 -1.140625 3.90625 -1.320312 3.90625 -1.53125 C 3.90625 -1.707031 3.84375 -1.851562 3.71875 -1.96875 C 3.59375 -2.09375 3.394531 -2.1875 3.125 -2.25 L 2.171875 -2.453125 C 1.648438 -2.566406 1.265625 -2.753906 1.015625 -3.015625 C 0.765625 -3.273438 0.640625 -3.601562 0.640625 -4 C 0.640625 -4.332031 0.734375 -4.625 0.921875 -4.875 C 1.109375 -5.125 1.363281 -5.316406 1.6875 -5.453125 C 2.007812 -5.585938 2.382812 -5.65625 2.8125 -5.65625 C 3.414062 -5.65625 3.890625 -5.523438 4.234375 -5.265625 C 4.578125 -5.003906 4.804688 -4.65625 4.921875 -4.21875 Z M 4.921875 -4.21875 "/></g></g></g><g fill="#000000" fill-opacity="1"><g transform="translate(107.75675, 60.307881)"><g/></g></g><g fill="#000000" fill-opacity="1"><g transform="translate(110.47098, 60.307881)"><g><path d="M 1.8125 -3.3125 L 1.8125 0 L 0.734375 0 L 0.734375 -7.453125 L 1.8125 -7.453125 L 1.8125 -4.6875 L 1.875 -4.6875 C 2.007812 -4.976562 2.207031 -5.210938 2.46875 -5.390625 C 2.738281 -5.566406 3.09375 -5.65625 3.53125 -5.65625 C 3.914062 -5.65625 4.25 -5.578125 4.53125 -5.421875 C 4.820312 -5.265625 5.046875 -5.03125 5.203125 -4.71875 C 5.367188 -4.40625 5.453125 -4.019531 5.453125 -3.5625 L 5.453125 0 L 4.359375 0 L 4.359375 -3.421875 C 4.359375 -3.835938 4.25 -4.15625 4.03125 -4.375 C 3.820312 -4.601562 3.53125 -4.71875 3.15625 -4.71875 C 2.90625 -4.71875 2.675781 -4.660156 2.46875 -4.546875 C 2.269531 -4.441406 2.109375 -4.285156 1.984375 -4.078125 C 1.867188 -3.867188 1.8125 -3.613281 1.8125 -3.3125 Z M 1.8125 -3.3125 "/></g></g></g><g fill="#000000" fill-opacity="1"><g transform="translate(116.638031, 60.307881)"><g><path d="M 3.140625 0.109375 C 2.585938 0.109375 2.113281 -0.00390625 1.71875 -0.234375 C 1.320312 -0.472656 1.015625 -0.804688 0.796875 -1.234375 C 0.585938 -1.671875 0.484375 -2.179688 0.484375 -2.765625 C 0.484375 -3.335938 0.585938 -3.835938 0.796875 -4.265625 C 1.015625 -4.703125 1.316406 -5.039062 1.703125 -5.28125 C 2.085938 -5.53125 2.539062 -5.65625 3.0625 -5.65625 C 3.375 -5.65625 3.675781 -5.601562 3.96875 -5.5 C 4.269531 -5.394531 4.535156 -5.234375 4.765625 -5.015625 C 5.003906 -4.796875 5.191406 -4.503906 5.328125 -4.140625 C 5.472656 -3.785156 5.546875 -3.359375 5.546875 -2.859375 L 5.546875 -2.46875 L 1.09375 -2.46875 L 1.09375 -3.28125 L 4.46875 -3.28125 C 4.46875 -3.570312 4.410156 -3.828125 4.296875 -4.046875 C 4.179688 -4.265625 4.019531 -4.4375 3.8125 -4.5625 C 3.601562 -4.695312 3.359375 -4.765625 3.078125 -4.765625 C 2.765625 -4.765625 2.492188 -4.6875 2.265625 -4.53125 C 2.046875 -4.382812 1.875 -4.191406 1.75 -3.953125 C 1.625 -3.710938 1.5625 -3.457031 1.5625 -3.1875 L 1.5625 -2.546875 C 1.5625 -2.171875 1.628906 -1.851562 1.765625 -1.59375 C 1.898438 -1.332031 2.082031 -1.128906 2.3125 -0.984375 C 2.550781 -0.847656 2.832031 -0.78125 3.15625 -0.78125 C 3.363281 -0.78125 3.550781 -0.8125 3.71875 -0.875 C 3.882812 -0.9375 4.03125 -1.023438 4.15625 -1.140625 C 4.28125 -1.265625 4.375 -1.410156 4.4375 -1.578125 L 5.46875 -1.390625 C 5.382812 -1.085938 5.234375 -0.820312 5.015625 -0.59375 C 4.804688 -0.375 4.539062 -0.203125 4.21875 -0.078125 C 3.90625 0.046875 3.546875 0.109375 3.140625 0.109375 Z M 3.140625 0.109375 "/></g></g></g><g fill="#000000" fill-opacity="1"><g transform="translate(122.655906, 60.307881)"><g><path d="M 0.734375 0 L 0.734375 -5.59375 L 1.78125 -5.59375 L 1.78125 -4.703125 L 1.84375 -4.703125 C 1.945312 -5.003906 2.125 -5.238281 2.375 -5.40625 C 2.632812 -5.582031 2.929688 -5.671875 3.265625 -5.671875 C 3.328125 -5.671875 3.40625 -5.664062 3.5 -5.65625 C 3.59375 -5.65625 3.664062 -5.65625 3.71875 -5.65625 L 3.71875 -4.609375 C 3.675781 -4.617188 3.597656 -4.628906 3.484375 -4.640625 C 3.378906 -4.660156 3.269531 -4.671875 3.15625 -4.671875 C 2.894531 -4.671875 2.664062 -4.613281 2.46875 -4.5 C 2.269531 -4.394531 2.109375 -4.25 1.984375 -4.0625 C 1.867188 -3.875 1.8125 -3.660156 1.8125 -3.421875 L 1.8125 0 Z M 0.734375 0 "/></g></g></g><g fill="#000000" fill-opacity="1"><g transform="translate(126.592633, 60.307881)"><g><path d="M 3.140625 0.109375 C 2.585938 0.109375 2.113281 -0.00390625 1.71875 -0.234375 C 1.320312 -0.472656 1.015625 -0.804688 0.796875 -1.234375 C 0.585938 -1.671875 0.484375 -2.179688 0.484375 -2.765625 C 0.484375 -3.335938 0.585938 -3.835938 0.796875 -4.265625 C 1.015625 -4.703125 1.316406 -5.039062 1.703125 -5.28125 C 2.085938 -5.53125 2.539062 -5.65625 3.0625 -5.65625 C 3.375 -5.65625 3.675781 -5.601562 3.96875 -5.5 C 4.269531 -5.394531 4.535156 -5.234375 4.765625 -5.015625 C 5.003906 -4.796875 5.191406 -4.503906 5.328125 -4.140625 C 5.472656 -3.785156 5.546875 -3.359375 5.546875 -2.859375 L 5.546875 -2.46875 L 1.09375 -2.46875 L 1.09375 -3.28125 L 4.46875 -3.28125 C 4.46875 -3.570312 4.410156 -3.828125 4.296875 -4.046875 C 4.179688 -4.265625 4.019531 -4.4375 3.8125 -4.5625 C 3.601562 -4.695312 3.359375 -4.765625 3.078125 -4.765625 C 2.765625 -4.765625 2.492188 -4.6875 2.265625 -4.53125 C 2.046875 -4.382812 1.875 -4.191406 1.75 -3.953125 C 1.625 -3.710938 1.5625 -3.457031 1.5625 -3.1875 L 1.5625 -2.546875 C 1.5625 -2.171875 1.628906 -1.851562 1.765625 -1.59375 C 1.898438 -1.332031 2.082031 -1.128906 2.3125 -0.984375 C 2.550781 -0.847656 2.832031 -0.78125 3.15625 -0.78125 C 3.363281 -0.78125 3.550781 -0.8125 3.71875 -0.875 C 3.882812 -0.9375 4.03125 -1.023438 4.15625 -1.140625 C 4.28125 -1.265625 4.375 -1.410156 4.4375 -1.578125 L 5.46875 -1.390625 C 5.382812 -1.085938 5.234375 -0.820312 5.015625 -0.59375 C 4.804688 -0.375 4.539062 -0.203125 4.21875 -0.078125 C 3.90625 0.046875 3.546875 0.109375 3.140625 0.109375 Z M 3.140625 0.109375 "/></g></g></g><g fill="#000000" fill-opacity="1"><g transform="translate(132.610508, 60.307881)"><g><path d="M 1.453125 0.0625 C 1.253906 0.0625 1.082031 -0.00390625 0.9375 -0.140625 C 0.789062 -0.285156 0.71875 -0.457031 0.71875 -0.65625 C 0.71875 -0.851562 0.789062 -1.023438 0.9375 -1.171875 C 1.082031 -1.316406 1.253906 -1.390625 1.453125 -1.390625 C 1.648438 -1.390625 1.816406 -1.316406 1.953125 -1.171875 C 2.097656 -1.023438 2.171875 -0.851562 2.171875 -0.65625 C 2.171875 -0.519531 2.132812 -0.394531 2.0625 -0.28125 C 2 -0.175781 1.914062 -0.09375 1.8125 -0.03125 C 1.707031 0.03125 1.585938 0.0625 1.453125 0.0625 Z M 1.453125 0.0625 "/></g></g></g></svg>