<svg xmlns="http://www.w3.org/2000/svg" xmlns:xlink="http://www.w3.org/1999/xlink" width="500" zoomAndPan="magnify" viewBox="0 0 375 374.999991" height="500" preserveAspectRatio="xMidYMid meet" version="1.0"><defs><clipPath id="6e610b1e1c"><path d="M 13.445312 13.445312 L 361.445312 13.445312 L 361.445312 361.445312 L 13.445312 361.445312 Z M 13.445312 13.445312 " clip-rule="nonzero"/></clipPath></defs><path fill="#bf9900" d="M 238.871094 176.726562 C 238.871094 178.761719 238.773438 180.789062 238.570312 182.816406 C 238.371094 184.84375 238.074219 186.851562 237.675781 188.847656 C 237.28125 190.84375 236.785156 192.816406 236.195312 194.765625 C 235.605469 196.710938 234.917969 198.625 234.140625 200.507812 C 233.363281 202.386719 232.492188 204.226562 231.53125 206.019531 C 230.574219 207.816406 229.527344 209.558594 228.398438 211.25 C 227.265625 212.945312 226.054688 214.578125 224.765625 216.148438 C 223.472656 217.722656 222.109375 219.230469 220.667969 220.667969 C 219.230469 222.109375 217.722656 223.472656 216.148438 224.765625 C 214.578125 226.054688 212.945312 227.265625 211.25 228.398438 C 209.558594 229.527344 207.816406 230.574219 206.019531 231.53125 C 204.226562 232.492188 202.386719 233.363281 200.507812 234.140625 C 198.625 234.917969 196.710938 235.605469 194.765625 236.195312 C 192.816406 236.785156 190.84375 237.28125 188.847656 237.675781 C 186.851562 238.074219 184.84375 238.371094 182.816406 238.570312 C 180.789062 238.773438 178.761719 238.871094 176.726562 238.871094 C 174.691406 238.871094 172.660156 238.773438 170.632812 238.570312 C 168.609375 238.371094 166.597656 238.074219 164.601562 237.675781 C 162.605469 237.28125 160.632812 236.785156 158.683594 236.195312 C 156.738281 235.605469 154.824219 234.917969 152.941406 234.140625 C 151.0625 233.363281 149.222656 232.492188 147.429688 231.53125 C 145.632812 230.574219 143.890625 229.527344 142.199219 228.398438 C 140.507812 227.265625 138.875 226.054688 137.300781 224.765625 C 135.726562 223.472656 134.21875 222.109375 132.78125 220.667969 C 131.339844 219.230469 129.976562 217.722656 128.683594 216.148438 C 127.394531 214.578125 126.183594 212.945312 125.050781 211.25 C 123.921875 209.558594 122.875 207.816406 121.917969 206.019531 C 120.957031 204.226562 120.089844 202.386719 119.308594 200.507812 C 118.53125 198.625 117.84375 196.710938 117.253906 194.765625 C 116.664062 192.816406 116.167969 190.84375 115.773438 188.847656 C 115.375 186.851562 115.078125 184.84375 114.878906 182.816406 C 114.679688 180.789062 114.578125 178.761719 114.578125 176.726562 C 114.578125 174.691406 114.679688 172.660156 114.878906 170.632812 C 115.078125 168.609375 115.375 166.597656 115.773438 164.601562 C 116.167969 162.605469 116.664062 160.632812 117.253906 158.683594 C 117.84375 156.738281 118.53125 154.824219 119.308594 152.941406 C 120.089844 151.0625 120.957031 149.222656 121.917969 147.429688 C 122.875 145.632812 123.921875 143.890625 125.050781 142.199219 C 126.183594 140.507812 127.394531 138.871094 128.683594 137.300781 C 129.976562 135.726562 131.339844 134.21875 132.78125 132.78125 C 134.21875 131.339844 135.726562 129.976562 137.300781 128.683594 C 138.871094 127.394531 140.507812 126.183594 142.199219 125.050781 C 143.890625 123.921875 145.632812 122.875 147.429688 121.917969 C 149.222656 120.957031 151.0625 120.089844 152.941406 119.308594 C 154.824219 118.53125 156.738281 117.84375 158.683594 117.253906 C 160.632812 116.664062 162.605469 116.167969 164.601562 115.773438 C 166.597656 115.375 168.609375 115.078125 170.632812 114.878906 C 172.660156 114.679688 174.691406 114.578125 176.726562 114.578125 C 178.761719 114.578125 180.789062 114.679688 182.816406 114.878906 C 184.84375 115.078125 186.851562 115.375 188.847656 115.773438 C 190.84375 116.167969 192.816406 116.664062 194.765625 117.253906 C 196.710938 117.84375 198.625 118.53125 200.507812 119.308594 C 202.386719 120.089844 204.226562 120.957031 206.019531 121.917969 C 207.816406 122.875 209.558594 123.921875 211.25 125.050781 C 212.945312 126.183594 214.578125 127.394531 216.148438 128.683594 C 217.722656 129.976562 219.230469 131.339844 220.667969 132.78125 C 222.109375 134.21875 223.472656 135.726562 224.765625 137.300781 C 226.054688 138.871094 227.265625 140.507812 228.398438 142.199219 C 229.527344 143.890625 230.574219 145.632812 231.53125 147.429688 C 232.492188 149.222656 233.363281 151.0625 234.140625 152.941406 C 234.917969 154.824219 235.605469 156.738281 236.195312 158.683594 C 236.785156 160.632812 237.28125 162.605469 237.675781 164.601562 C 238.074219 166.597656 238.371094 168.609375 238.570312 170.632812 C 238.773438 172.660156 238.871094 174.691406 238.871094 176.726562 Z M 238.871094 176.726562 " fill-opacity="1" fill-rule="nonzero"/><g clip-path="url(#6e610b1e1c)"><path fill="#bf9900" d="M 187.496094 13.445312 C 91.371094 13.445312 13.445312 91.371094 13.445312 187.496094 C 13.445312 283.625 91.371094 361.550781 187.496094 361.550781 C 283.625 361.550781 361.550781 283.625 361.550781 187.496094 C 361.550781 91.371094 283.625 13.445312 187.496094 13.445312 Z M 288.707031 288.707031 C 282.234375 295.179688 271.742188 295.179688 265.269531 288.707031 L 231.363281 254.800781 C 215.929688 265.621094 197.144531 271.984375 176.871094 272.015625 C 124.957031 272.09375 82.285156 230.207031 81.445312 178.300781 C 80.578125 124.425781 124.425781 80.574219 178.300781 81.445312 C 230.207031 82.285156 272.09375 124.957031 272.015625 176.871094 C 271.984375 197.144531 265.621094 215.929688 254.800781 231.363281 L 288.707031 265.269531 C 295.179688 271.742188 295.179688 282.234375 288.707031 288.707031 Z M 288.707031 288.707031 " fill-opacity="1" fill-rule="nonzero"/></g></svg>